<svg xmlns="http://www.w3.org/2000/svg" xmlns:xlink="http://www.w3.org/1999/xlink" viewBox="0 0 396.25 396.25"><defs><style>.cls-1{fill:url(#Degradado_sin_nombre_24);}.cls-2{fill:url(#Degradado_sin_nombre_24-2);}.cls-3{fill:url(#Degradado_sin_nombre_24-3);}.cls-4{fill:url(#Degradado_sin_nombre_24-4);}.cls-5{fill:url(#Degradado_sin_nombre_24-5);}.cls-6{fill:url(#Degradado_sin_nombre_24-6);}.cls-7{fill:url(#Degradado_sin_nombre_24-7);}.cls-8{fill:url(#Degradado_sin_nombre_24-8);}.cls-9{fill:url(#linear-gradient);}</style><radialGradient id="Degradado_sin_nombre_24" cx="122.62" cy="17.72" r="5.13" gradientUnits="userSpaceOnUse"><stop offset="0" stop-color="#fff"/><stop offset="1" stop-color="#f9b334"/></radialGradient><radialGradient id="Degradado_sin_nombre_24-2" cx="272.68" cy="16.72" r="5.13" xlink:href="#Degradado_sin_nombre_24"/><radialGradient id="Degradado_sin_nombre_24-3" cx="378.83" cy="122.6" r="5.13" xlink:href="#Degradado_sin_nombre_24"/><radialGradient id="Degradado_sin_nombre_24-4" cx="378.83" cy="272.43" r="5.13" xlink:href="#Degradado_sin_nombre_24"/><radialGradient id="Degradado_sin_nombre_24-5" cx="273.45" cy="378.81" r="5.13" xlink:href="#Degradado_sin_nombre_24"/><radialGradient id="Degradado_sin_nombre_24-6" cx="124.13" cy="379.81" r="5.13" xlink:href="#Degradado_sin_nombre_24"/><radialGradient id="Degradado_sin_nombre_24-7" cx="18.74" cy="273.93" r="5.13" xlink:href="#Degradado_sin_nombre_24"/><radialGradient id="Degradado_sin_nombre_24-8" cx="17.74" cy="125.11" r="5.13" xlink:href="#Degradado_sin_nombre_24"/><linearGradient id="linear-gradient" x1="165.47" y1="-7.25" x2="340.47" y2="312.75" gradientTransform="translate(355.98 -57.63) rotate(90)" gradientUnits="userSpaceOnUse"><stop offset="0" stop-color="#c3c1c2"/><stop offset="0.47" stop-color="#fff"/><stop offset="1" stop-color="#dcdbdb"/></linearGradient></defs><title>fondo_gris</title><g id="Capa_2" data-name="Capa 2"><g id="Capa_1-2" data-name="Capa 1"><circle class="cls-1" cx="122.62" cy="17.72" r="5.13"/><circle class="cls-2" cx="272.68" cy="16.72" r="5.13"/><circle class="cls-3" cx="378.83" cy="122.6" r="5.13"/><circle class="cls-4" cx="378.83" cy="272.43" r="5.13"/><circle class="cls-5" cx="273.45" cy="378.81" r="5.13"/><circle class="cls-6" cx="124.13" cy="379.81" r="5.13"/><circle class="cls-7" cx="18.74" cy="273.93" r="5.13"/><circle class="cls-8" cx="17.74" cy="125.11" r="5.13"/><path class="cls-9" d="M58.07,338.26l19.5-.3a183.83,183.83,0,0,0,106.76,44.29l13.86,14,13.57-14a183.83,183.83,0,0,0,106.79-44.17l19.72.1-.3-19.5a183.84,183.84,0,0,0,44.29-106.75l14-13.86-14-13.57A183.8,183.8,0,0,0,338.09,77.72l.1-19.72-19.5.3A183.81,183.81,0,0,0,211.94,14L198.08,0,184.5,14A183.85,183.85,0,0,0,77.71,58.17L58,58.07l.3,19.5A183.84,183.84,0,0,0,14,184.32L0,198.18l14,13.57a183.84,183.84,0,0,0,44.17,106.8Z"/></g></g></svg>